# xmcd CD database file
# Copyright (C) 1993-1998 Ti Kan
#
# Track frame offsets:
#	182
#	9935
#	18350
#	26132
#	35512
#	44370
#	55185
#	61945
#	69432
#	82115
#	92460
#	99525
#	109037
#	115822
#	122315
#	128992
#	138717
#	148880
#	158382
#	173665
#	185380
#	190457
#	196737
#	203620
#
# Disc length: 2798 seconds
#
# Revision: 1
# Processed by: cddbd v1.4b41PL1 Copyright (c) Steve Scherf et al.
# Submitted via: CDValet v3.31 - Copyright (c) 1997 Greg Leichner
#
DISCID=400aec18
DTITLE=Hank Williams, Jr. - Your Cheatin' Heart
DYEAR=1900
DGENRE=
TTITLE0=Your Cheatin' Heart
TTITLE1=Long Gone Lonesome Blues
TTITLE2=I Saw the Light
TTITLE3=I Can't Help it if I'm Still in Love with You 
TTITLE4=Jambalaya on the Bayou
TTITLE5=Cold Cold Heart
TTITLE6=Jambalaya on the Bayou
TTITLE7=Hey Good Lookin'
TTITLE8=Hey Good Lookin'
TTITLE9=I'm So Lonesome I Could Cry
TTITLE10=Kaw-Liga
TTITLE11=You Win Again
TTITLE12=Ramblin' Man
TTITLE13=I Saw the Light
TTITLE14=Jambalaya on the Bayou
TTITLE15=Kaw-Liga
TTITLE16=I'm So Lonesome I Could Cry
TTITLE17=Lon gone Lonesome Blues
TTITLE18=Cold Cold Heart
TTITLE19=You Win Again
TTITLE20=There'll Be No Teardrops Tonight
TTITLE21=I Saw the Light
TTITLE22=I Can't Help it if I'm Still in Love with You
TTITLE23=Ramblin' Man
EXTD=
EXTT0=
EXTT1=
EXTT2=
EXTT3=
EXTT4=With Saxophone
EXTT5=
EXTT6=With Electric Guitar
EXTT7=with Saxophone
EXTT8=with Electric Guitar
EXTT9=
EXTT10=
EXTT11=
EXTT12=
EXTT13=
EXTT14=
EXTT15=
EXTT16=
EXTT17=
EXTT18=
EXTT19=
EXTT20=
EXTT21=
EXTT22=
EXTT23=
PLAYORDER=
